<?xml version="1.0" encoding="utf-8"?>
<!-- Generator: Adobe Illustrator 24.1.0, SVG Export Plug-In . SVG Version: 6.00 Build 0)  -->
<svg version="1.1" id="Layer_1" xmlns="http://www.w3.org/2000/svg" xmlns:xlink="http://www.w3.org/1999/xlink" x="0px" y="0px"
	 viewBox="0 0 128 128" style="enable-background:new 0 0 128 128;" xml:space="preserve">
<style type="text/css">
	.st0{fill:#2D3748;}
</style>
<g id="Page-1">
	<g id="Inbox-Final" transform="translate(-46.000000, -63.000000)">
		<g id="Group-2" transform="translate(46.000000, 63.000000)">
			<path id="text" class="st0" d="M21.8,70.7v-5.6h-5.6V48.4h5.6v-5.6h-5.6V23.8H5.1v41.4h5.6v5.6H21.8z M59.2,70.7v-5.6H42.5v-5.6
				h16.7V48.4h-5.6v-5.6H36.9v5.6h-5.6v16.7h5.6v5.6H59.2z M48.1,54h-5.6v-5.6h5.6V54z M79.9,70.7V59.6h5.6v11.1h11.1V59.6h-5.6V54
				h5.6V42.9H85.5V54h-5.6V42.9H68.8V54h5.6v5.6h-5.6v11.1H79.9z M122.9,70.7v-5.6h-5.6V48.4h5.6v-5.6h-5.6V23.8h-11.1v41.4h5.6v5.6
				H122.9z"/>
			<path id="rocks" class="st0" d="M27.4,103.7v-9.5h6.4v-6.4h-3.2v3.2h-3.2v-3.2H21v15.9H27.4z M50.5,103.7v-3.2h3.2v-9.5h-3.2
				v-3.2h-9.5v3.2h-3.2v9.5h3.2v3.2H50.5z M47.3,100.5h-3.2v-9.5h3.2V100.5z M70.4,103.7v-3.2H64v-9.5h6.4v-3.2h-9.5v3.2h-3.2v9.5
				h3.2v3.2H70.4z M80.7,103.7v-3.2h3.2v3.2h6.4v-3.2h-3.2v-3.2h-3.2v-3.2h3.2v-3.2h3.2v-3.2h-6.4v3.2h-3.2v-9.5h-6.4v22.2H80.7z
				 M103.8,103.7v-3.2h3.2v-6.4h-6.4v-3.2h6.4v-3.2h-9.5v3.2h-3.2v6.4h6.4v3.2h-6.4v3.2H103.8z"/>
		</g>
	</g>
</g>
</svg>
