<?xml version="1.0" encoding="utf-8"?>
<!-- Generator: Adobe Illustrator 24.1.0, SVG Export Plug-In . SVG Version: 6.00 Build 0)  -->
<svg version="1.1" id="Layer_1" xmlns="http://www.w3.org/2000/svg" xmlns:xlink="http://www.w3.org/1999/xlink" x="0px" y="0px"
	 viewBox="0 0 256 258" style="enable-background:new 0 0 256 258;" xml:space="preserve">
<style type="text/css">
	.st0{fill:#2D3748;}
</style>
<g id="Page-1">
	<g id="Inbox-Final" transform="translate(-46.000000, -63.000000)">
		<g id="Group-2" transform="translate(46.000000, 63.000000)">
			<path id="text" class="st0" d="M41.3,143.1v-11.4H29.9V97.3h11.4V85.9H29.9V46.7H7v85h11.4v11.4H41.3z M118.2,143.1v-11.4H83.8
				v-11.4h34.3V97.3h-11.4V85.9H72.4v11.4H60.9v34.3h11.4v11.4H118.2z M95.3,108.8H83.8V97.3h11.4V108.8z M160.7,143.1v-22.9h11.4
				v22.9h22.9v-22.9h-11.4v-11.4h11.4V85.9h-22.9v22.9h-11.4V85.9h-22.9v22.9h11.4v11.4h-11.4v22.9H160.7z M249,143.1v-11.4h-11.4
				V97.3H249V85.9h-11.4V46.7h-22.9v85h11.4v11.4H249z"/>
			<path id="rocks" class="st0" d="M52.8,210.8v-19.6h13.1v-13.1h-6.5v6.5h-6.5v-6.5H39.7v32.6H52.8z M100.2,210.8v-6.5h6.5v-19.6
				h-6.5v-6.5H80.6v6.5h-6.5v19.6h6.5v6.5H100.2z M93.7,204.2h-6.5v-19.6h6.5V204.2z M141.1,210.8v-6.5H128v-19.6h13.1v-6.5h-19.6
				v6.5h-6.5v19.6h6.5v6.5H141.1z M162.3,210.8v-6.5h6.5v6.5h13.1v-6.5h-6.5v-6.5h-6.5v-6.5h6.5v-6.5h6.5v-6.5h-13.1v6.5h-6.5v-19.6
				h-13.1v45.7H162.3z M209.7,210.8v-6.5h6.5v-13.1h-13.1v-6.5h13.1v-6.5h-19.6v6.5h-6.5v13.1h13.1v6.5h-13.1v6.5H209.7z"/>
		</g>
	</g>
</g>
</svg>
